<svg xmlns="http://www.w3.org/2000/svg" width="54" height="54" viewBox="0 0 500 500"><path fill="#c00" d="M500 500H0V0h500zM370.3 250c0-66.3-54-120.3-120.3-120.3s-120.3 54-120.3 120.3 54 120.3 120.3 120.3 120.3-54 120.3-120.3zm-48.4 0a71.9 71.9 0 1 1-71.9-71.8 72 72 0 0 1 71.9 71.8zm111.3 156.6c0-10.6-5.1-16.6-11.3-19.9 5.7-3.1 10.1-8.5 10.1-18 0-14.7-11.2-25.1-26.7-25.1s-26.5 9.4-26.9 25h16c.4-6.6 4.8-10.6 10.9-10.6s10.7 3.8 10.7 11.2-3.4 11-11.1 11h-2.3v13.9h2.3c7.9 0 12.3 4.8 12.3 12s-4.9 12.2-11.8 12.2-11.7-3.6-11.9-11.4h-16c.2 18.3 13.6 25.8 27.9 25.8s27.8-8.6 27.8-26.1z"/></svg>